
<svg width="20px" height="20px" viewBox="0 0 21 18" version="1.1" xmlns="http://www.w3.org/2000/svg" xmlns:xlink="http://www.w3.org/1999/xlink">
    <g id="Page-1" stroke="none" stroke-width="1" fill="none" fill-rule="evenodd">
        <g id="Desktop" transform="translate(-609.000000, -360.000000)" fill="#F1FAFF" fill-rule="nonzero">
            <g id="Group-5" transform="translate(50.000000, 265.000000)">
                <g id="Card-Copy" transform="translate(399.000000, 0.000000)">
                    <g id="Group-4" transform="translate(23.000000, 87.000000)">
                        <g id="Group-7">
                            <g id="Buy-Group">
                                <g id="Group-3">
                                    <g id="sync-solid" transform="translate(137.889688, 8.000000)">
                                        <path d="M17.0890569,0.441914054 L17.2441828,3.35179681 C15.420469,1.40151373 12.7418204,0.278308412 9.9214647,0.281249995 C5.2250281,0.281249995 1.31507981,3.33703119 0.476624326,7.37648424 C0.451513749,7.4997017 0.488123758,7.62666197 0.576538474,7.72297765 C0.664953189,7.81929333 0.796022373,7.87499649 0.934245728,7.87499986 L2.83647707,7.87499986 C3.05237401,7.87478787 3.23976051,7.73999819 3.28905688,7.54945299 C3.92294466,5.16464212 6.05181199,3.34490126 8.71520595,2.91121883 C11.3785999,2.4775364 14.0729902,3.51190262 15.5827844,5.54765615 L11.648016,5.37679678 C11.5208066,5.3713129 11.3966757,5.41332742 11.3045591,5.49304648 C11.2124425,5.57276554 11.1603891,5.68322344 11.1605328,5.79867177 L11.1605328,7.46542955 C11.1605328,7.69842467 11.3688895,7.88730454 11.6259105,7.88730454 L19.3907374,7.88730454 C19.6477584,7.88730454 19.8561151,7.69842467 19.8561151,7.46542955 L19.8561151,0.421874992 C19.8561151,0.188879868 19.6477584,1.42668367e-17 19.3907374,0 L17.5536589,0 C17.4264406,6.2033728e-05 17.3047961,0.0473338045 17.2170264,0.130817481 C17.1292566,0.214301157 17.083014,0.326717982 17.0890569,0.441914054 Z M9.9214647,15.1874997 C7.64890926,15.1892648 5.52512067,14.1633383 4.25936938,12.4523435 L8.20732352,12.6235545 C8.33453292,12.6290383 8.45866375,12.5870238 8.55078037,12.5073048 C8.642897,12.4275857 8.69495041,12.3171278 8.69480665,12.2016795 L8.69480665,10.5352732 C8.69480665,10.3022781 8.48644996,10.1133983 8.22942896,10.1133983 L0.465377698,10.1133983 C0.208356692,10.1133983 3.14759952e-17,10.3022781 0,10.5352732 L0,17.5781247 C3.14759952e-17,17.8111198 0.208356692,17.9999997 0.465377698,17.9999997 L2.30168053,17.9999997 C2.4292458,18.0001443 2.55128416,17.9528131 2.63926028,17.8690733 C2.72723639,17.7853334 2.7734366,17.6725271 2.76705823,17.5570309 L2.60611511,14.6541794 C4.42944393,16.6004139 7.10476286,17.7211673 9.9214647,17.7187497 C14.6182891,17.7187497 18.5282374,14.6629685 19.3666929,10.6235154 C19.3918035,10.500298 19.3551935,10.3733377 19.2667787,10.277022 C19.178364,10.1807063 19.0472948,10.1250032 18.9090715,10.1249998 L17.0068402,10.1249998 C16.7909432,10.1252118 16.6035567,10.2600015 16.5542603,10.4505467 C15.8170167,13.2295836 13.0744724,15.1882304 9.9214647,15.1874997 Z" id="Shape"></path>
                                    </g>
                                </g>
                            </g>
                        </g>
                    </g>
                </g>
            </g>
        </g>
    </g>
</svg>